<svg width="196" height="50" viewBox="0 0 196 50" fill="none" xmlns="http://www.w3.org/2000/svg">
<path d="M185.24 7.52598V0.0503412L185.265 0H158.927C155.632 0 152.96 2.69325 152.96 6.01575V6.59467C152.935 7.82803 152.96 19.8847 152.985 25.1202L152.935 27.1842C152.935 30.5067 155.607 33.1999 158.902 33.1999H185.24V25.8249H161.973C161.845 25.8249 161.733 25.8291 161.632 25.8329C161.179 25.8499 160.94 25.8589 160.45 25.4474C160.09 25.1699 160.125 23.6435 160.144 22.8175C160.147 22.6696 160.15 22.5439 160.15 22.4521V10.8988C160.15 10.7095 160.145 10.5096 160.14 10.3059L160.14 10.3048C160.116 9.29003 160.088 8.18006 160.65 7.80286C161.099 7.52598 162.023 7.52598 162.722 7.52598H185.24Z" fill="black"/>
<path fill-rule="evenodd" clip-rule="evenodd" d="M108.772 21.5963C114.14 20.9922 118.309 16.4112 118.309 10.8485C118.309 5.28579 113.491 0.0251561 107.574 0.0251561H10.3605C4.74334 0.0251561 0.174755 4.88306 0.174755 10.5464C0.174755 16.2098 4.74334 20.816 10.3605 20.816H20.0219C20.1577 20.816 20.3585 20.8138 20.6006 20.8112L20.601 20.8112C21.7833 20.7983 23.9514 20.7747 24.3658 20.9419C26.1883 21.697 26.5128 24.4154 24.7653 25.5229C24.2317 25.8616 23.401 25.8376 22.5455 25.8128C22.3201 25.8063 22.0931 25.7998 21.8693 25.7998H0V33.1747H24.3408C29.6584 33.1747 33.9524 28.7951 33.9524 23.4589C33.9524 18.1228 29.6584 13.8186 24.3408 13.8186H11.8084C10.0609 13.8186 8.66285 12.3839 8.66285 10.6471C8.66285 8.91035 10.0858 7.47563 11.8084 7.47563H39.3947V33.1999H46.5846V7.52597H54.2239V33.1999H83.1333V25.8249H61.6135V20.8412H80.1875V13.8186H61.6135V7.5008H85.0556V33.1747H92.4203V14.7751C93.0195 15.1778 107.624 32.0169 108.348 33.1747H126.572C126.921 32.1329 127.458 30.473 127.883 29.1566C128.249 28.0239 128.533 27.1454 128.545 27.1338H143.549V33.1747H150.863V0.0503265H129.518C129.518 0.0503265 120.681 25.8501 120.656 25.8501H113.016C113.016 25.8501 108.423 21.6466 108.822 21.5963H108.772ZM104.154 13.8438H92.3704V7.55114H107.749C109.471 7.55114 110.869 8.96069 110.869 10.6975C110.869 12.4342 109.471 13.8689 107.749 13.8689H104.129L104.154 13.8438ZM143.449 20.0861H130.866C131.018 19.6278 131.173 19.1696 131.326 18.7168L131.326 18.716C131.577 17.9754 131.823 17.2493 132.04 16.5622C132.981 13.7489 133.647 11.6158 134.177 9.92126L134.18 9.91394L134.18 9.91098C134.465 9.0022 134.709 8.21967 134.936 7.52597H143.424V20.0609L143.449 20.0861Z" fill="black"/>
<path fill-rule="evenodd" clip-rule="evenodd" d="M192.63 2.13949C193.079 2.13949 193.404 2.18983 193.603 2.26534C193.978 2.41636 194.153 2.71841 194.153 3.19665C194.153 3.66673 194.032 3.7477 193.815 3.89375L193.803 3.90142C193.678 3.97693 193.504 4.05244 193.279 4.07762C193.553 4.12796 193.778 4.25381 193.903 4.43C194.028 4.63137 194.103 4.80756 194.103 4.98375V5.53751C194.103 5.63819 194.103 5.68853 194.128 5.7137V5.76404H193.553V5.2858C193.553 4.8579 193.454 4.58103 193.204 4.45517C193.079 4.37966 192.829 4.32932 192.505 4.32932H192.006V5.76404H191.381V2.11432H192.655L192.63 2.13949ZM193.304 2.71841C193.154 2.61773 192.879 2.59256 192.53 2.59256H191.981V3.90142H192.555C192.829 3.90142 193.029 3.87625 193.154 3.82591C193.404 3.72523 193.528 3.54903 193.528 3.24699C193.528 2.94494 193.454 2.79392 193.279 2.71841H193.304Z" fill="black"/>
<path fill-rule="evenodd" clip-rule="evenodd" d="M195.026 6.34296C194.377 6.99739 193.603 7.32461 192.705 7.32461C191.806 7.32461 191.032 6.99739 190.383 6.34296C189.734 5.68853 189.434 4.90824 189.434 4.0021C189.434 3.09597 189.759 2.31568 190.383 1.66125C191.032 1.00681 191.806 0.704767 192.705 0.704767C193.603 0.704767 194.402 1.03198 195.026 1.66125C195.675 2.31568 196 3.09597 196 4.0021C196 4.90824 195.675 5.7137 195.026 6.34296ZM190.682 1.96329C190.133 2.51704 189.859 3.19665 189.859 3.97693C189.859 4.75722 190.133 5.43682 190.682 6.01574C191.232 6.5695 191.906 6.84637 192.68 6.84637C193.454 6.84637 194.128 6.5695 194.677 6.01574C195.226 5.46199 195.501 4.78239 195.501 3.97693C195.501 3.17148 195.226 2.51704 194.677 1.96329C194.128 1.40954 193.454 1.13267 192.68 1.13267C191.906 1.13267 191.232 1.40954 190.682 1.96329Z" fill="black"/>
<path fill-rule="evenodd" clip-rule="evenodd" d="M99.4854 47.2199L99.81 47.7485V47.7736H101.607L100.384 45.8355C100.659 45.3321 100.933 44.7028 101.233 43.9477L99.9098 43.4191C99.858 43.5499 99.8091 43.6746 99.7621 43.7944C99.6736 44.0204 99.592 44.2285 99.5104 44.426L98.4119 42.6892C98.2621 42.4375 98.1872 42.2361 98.1872 42.0096C98.1872 41.8586 98.2372 41.6824 98.5368 41.6824C98.8363 41.6824 99.0111 41.7327 99.6103 42.3116L100.584 41.1034L100.519 41.0383C100.011 40.5241 99.7132 40.2225 98.5867 40.2225C97.4133 40.2225 96.5645 40.8517 96.5645 41.9844C96.5645 42.4878 96.7642 42.8654 97.0389 43.3185L97.2386 43.6205L97.1805 43.6731L97.1146 43.7325C96.4377 44.3427 96.0153 44.7234 96.0153 45.911C96.0153 47.1695 96.6394 47.8743 97.8877 47.8743C98.5118 47.8743 99.0111 47.7233 99.4854 47.2199ZM97.9722 44.8443C97.7083 45.1151 97.5881 45.3644 97.5881 45.7348C97.5881 46.1124 97.7379 46.4648 98.1124 46.4648C98.4545 46.4648 98.5049 46.3808 98.6633 46.1168L98.6822 46.0852C98.6878 46.076 98.6935 46.0666 98.6993 46.0569L98.7115 46.0369L97.9722 44.8443Z" fill="black"/>
<path d="M67.9796 47.8743C66.8313 47.8743 66.1822 47.3961 65.558 46.5906L66.7564 45.5083C67.2557 46.1124 67.6551 46.4144 68.0046 46.4144C68.3541 46.4144 68.6287 46.213 68.6287 45.8103C68.6287 45.4076 68.5039 45.1307 67.6801 44.7783C66.2321 44.1239 65.6829 43.5701 65.6829 42.4123C65.6829 41.2545 66.5566 40.2476 67.9547 40.2476C69.3307 40.2476 69.6426 40.6378 70.2472 41.3941L70.2764 41.4306L69.0531 42.5382C68.5538 41.9341 68.3791 41.7327 67.9047 41.7327C67.4304 41.7327 67.3805 41.9844 67.3805 42.2613C67.3805 42.664 67.5802 42.8654 68.3042 43.1926C69.7771 43.847 70.3264 44.4763 70.3264 45.7096C70.3264 46.943 69.3028 47.8995 67.9297 47.8995L67.9796 47.8743Z" fill="black"/>
<path d="M62.2377 45.609L63.3112 47.7485L63.2862 47.6981H64.6842V40.2728H63.0365V41.9341C63.0365 42.6137 63.0615 43.6457 63.1114 44.0484C62.9866 43.6457 62.5622 42.7396 62.1378 41.9844L61.2141 40.298H59.6912V47.7233H61.3389V45.6342C61.3389 44.9294 61.3389 43.998 61.289 43.5702C61.4388 43.9981 61.8382 44.8035 62.2377 45.609Z" fill="black"/>
<path fill-rule="evenodd" clip-rule="evenodd" d="M50.2046 44.9042L51.0783 47.7485H52.9258L51.8523 44.5266C51.9357 44.4776 52.0147 44.4368 52.089 44.3985C52.5484 44.1616 52.8259 44.0185 52.8259 42.5885C52.8259 40.9272 51.8772 40.3232 50.5541 40.3232H48.0077V47.7485H49.7302V44.9042H50.2046ZM49.7552 41.7327H50.4542C50.9535 41.7327 51.1283 42.0347 51.1283 42.6388C51.1283 43.2429 50.9286 43.545 50.4293 43.545H49.7552V41.7327Z" fill="black"/>
<path d="M45.7359 47.7485V41.8838H47.2338V40.3484H42.4904V41.8838H43.9883V47.7485H45.7359Z" fill="black"/>
<path fill-rule="evenodd" clip-rule="evenodd" d="M57.1448 47.7485L56.8702 46.3641H55.4222L55.1476 47.7485H53.3501L55.2475 40.3232H57.045L58.9423 47.7485H57.1448ZM56.5457 44.6777L56.4885 44.3574C56.3386 43.5188 56.2128 42.8152 56.1462 42.2109C56.0713 42.8905 55.9465 43.696 55.7468 44.6777L55.6969 44.9042H56.5706L56.5207 44.6525L56.5457 44.6777Z" fill="black"/>
<path fill-rule="evenodd" clip-rule="evenodd" d="M72.9726 45.0552H73.5967C74.9948 45.0552 75.9934 44.3504 75.9934 42.6388C75.9934 40.9272 75.0447 40.3232 73.7215 40.3232H71.25V47.7485H72.9726V45.0552ZM72.9726 41.783H73.5718C74.0711 41.783 74.2708 42.0347 74.2708 42.6892C74.2708 43.3436 74.0461 43.6205 73.5468 43.6205H72.9726V41.783Z" fill="black"/>
<path fill-rule="evenodd" clip-rule="evenodd" d="M79.1889 47.8743C77.5412 47.8743 76.5676 46.6661 76.5676 44.0736C76.5676 41.481 77.5662 40.2476 79.2139 40.2476C80.8616 40.2476 81.8352 41.4558 81.8352 44.0484C81.8352 46.6409 80.8366 47.8743 79.1889 47.8743ZM79.1889 41.7327C78.6397 41.7327 78.3651 42.2361 78.3651 44.0232C78.3651 45.8103 78.6397 46.3389 79.1889 46.3389C79.7381 46.3389 80.0128 45.8355 80.0128 44.0484C80.0128 42.2613 79.7381 41.7327 79.1889 41.7327Z" fill="black"/>
<path fill-rule="evenodd" clip-rule="evenodd" d="M84.8809 44.9042L85.7547 47.7485H87.6021L86.5286 44.5266C86.612 44.4776 86.6911 44.4368 86.7653 44.3985C87.2248 44.1616 87.5022 44.0185 87.5022 42.5885C87.5022 40.9272 86.5536 40.3232 85.2304 40.3232H82.684V47.7485H84.4066V44.9042H84.8809ZM84.4315 41.7327H85.1306C85.6299 41.7327 85.8046 42.0347 85.8046 42.6388C85.8046 43.2429 85.6049 43.545 85.1056 43.545H84.4315V41.7327Z" fill="black"/>
<path d="M91.297 41.8838V47.7485H89.5494V41.8838H88.0515V40.3484H92.7949V41.8838H91.297Z" fill="black"/>
<path d="M104.853 47.7485V40.3232H106.625V46.1879H108.922V47.7233H104.878L104.853 47.7485Z" fill="black"/>
<path fill-rule="evenodd" clip-rule="evenodd" d="M109.297 44.0736C109.297 46.6661 110.27 47.8743 111.918 47.8743C113.566 47.8743 114.564 46.6409 114.564 44.0484C114.564 41.4558 113.591 40.2476 111.943 40.2476C110.295 40.2476 109.297 41.481 109.297 44.0736ZM111.094 44.0232C111.094 42.2361 111.369 41.7327 111.918 41.7327C112.467 41.7327 112.742 42.2613 112.742 44.0484C112.742 45.8355 112.467 46.3389 111.918 46.3389C111.369 46.3389 111.094 45.8103 111.094 44.0232Z" fill="black"/>
<path d="M117.835 47.8743C116.187 47.8743 115.213 46.6158 115.213 44.0484C115.213 41.481 116.087 40.2225 117.86 40.2225C119.632 40.2225 119.932 41.0279 120.256 42.4375L118.584 42.9157C118.434 42.1103 118.309 41.7327 117.86 41.7327C117.41 41.7327 117.036 42.3368 117.036 44.0232C117.036 45.7097 117.31 46.3641 117.935 46.3641C118.559 46.3641 118.659 46.0369 118.709 45.4328V45.1307H117.86V43.7715H120.381V44.9294C120.381 46.7416 119.557 47.8491 117.835 47.8491V47.8743Z" fill="black"/>
<path d="M121.305 40.3232V47.7485H123.077V40.3232H121.305Z" fill="black"/>
<path d="M126.373 47.8743C125.224 47.8743 124.575 47.3961 123.951 46.5906L125.149 45.5083C125.649 46.1124 126.048 46.4144 126.398 46.4144C126.747 46.4144 127.022 46.213 127.022 45.8103C127.022 45.4076 126.897 45.1307 126.073 44.7783C124.625 44.1239 124.076 43.5701 124.076 42.4123C124.076 41.2545 124.95 40.2476 126.348 40.2476C127.724 40.2476 128.036 40.6378 128.64 41.3941L128.67 41.4306L127.446 42.5382C126.947 41.9341 126.772 41.7327 126.298 41.7327C125.824 41.7327 125.774 41.9844 125.774 42.2613C125.774 42.664 125.973 42.8654 126.697 43.1926C128.17 43.847 128.719 44.4763 128.719 45.7096C128.719 46.943 127.696 47.8995 126.323 47.8995L126.373 47.8743Z" fill="black"/>
<path d="M132.464 47.7485V41.8838H133.962V40.3484H129.219V41.8838H130.717V47.7485H132.464Z" fill="black"/>
<path d="M134.811 47.7485V40.3232H136.583V47.7485H134.811Z" fill="black"/>
<path d="M139.479 45.2817L139.929 44.6273L140.977 47.7485H142.974L141.252 43.0164L142.825 40.3232H140.827L140.403 41.1286L140.314 41.3007C140.024 41.8595 139.658 42.566 139.454 43.0667C139.479 42.513 139.479 41.8837 139.479 41.2041V40.3232H137.707V47.7485H139.479V45.2817Z" fill="black"/>
<path d="M37.1229 50H0V38.0968H37.1229V50Z" fill="black"/>
<path d="M185.24 50H148.117V38.0968H185.24V50Z" fill="black"/>
</svg>
